<?xml version="1.0" encoding="UTF-8" standalone="no"?>
<!-- Created with Inkscape (http://www.inkscape.org/) -->

<svg
   xmlns:dc="http://purl.org/dc/elements/1.1/"
   xmlns:cc="http://creativecommons.org/ns#"
   xmlns:rdf="http://www.w3.org/1999/02/22-rdf-syntax-ns#"
   xmlns:svg="http://www.w3.org/2000/svg"
   xmlns="http://www.w3.org/2000/svg"
   xmlns:sodipodi="http://sodipodi.sourceforge.net/DTD/sodipodi-0.dtd"
   xmlns:inkscape="http://www.inkscape.org/namespaces/inkscape"
   width="33.939651mm"
   height="33.649891mm"
   viewBox="0 0 33.939651 33.649891"
   version="1.1"
   id="svg8"
   inkscape:version="0.92.3 (2405546, 2018-03-11)"
   sodipodi:docname="favicon.svg"
   inkscape:export-filename="/home/luke/bitmap.png"
   inkscape:export-xdpi="96"
   inkscape:export-ydpi="96">
  <defs
     id="defs2" />
  <sodipodi:namedview
     id="base"
     pagecolor="#ffffff"
     bordercolor="#666666"
     borderopacity="1.0"
     inkscape:pageopacity="0.0"
     inkscape:pageshadow="2"
     inkscape:zoom="0.98994949"
     inkscape:cx="42.325051"
     inkscape:cy="16.975968"
     inkscape:document-units="mm"
     inkscape:current-layer="layer1"
     showgrid="false"
     inkscape:window-width="1920"
     inkscape:window-height="999"
     inkscape:window-x="0"
     inkscape:window-y="0"
     inkscape:window-maximized="1" />
  <metadata
     id="metadata5">
    <rdf:RDF>
      <cc:Work
         rdf:about="">
        <dc:format>image/svg+xml</dc:format>
        <dc:type
           rdf:resource="http://purl.org/dc/dcmitype/StillImage" />
        <dc:title></dc:title>
      </cc:Work>
    </rdf:RDF>
  </metadata>
  <g
     inkscape:label="Layer 1"
     inkscape:groupmode="layer"
     id="layer1"
     transform="translate(-17.097825,-16.287084)">
    <path
       style="fill:#000000;fill-opacity:1;stroke:none;stroke-width:0.26458332px;stroke-linecap:butt;stroke-linejoin:miter;stroke-opacity:1"
       d="m 17.142481,44.751289 c -0.178996,-0.756237 -0.02186,-6.099418 4.409948,-7.216277 1.575074,-0.396934 3.73049,0.184245 4.677215,0.7684 L 26.430097,19.227049 50.08345,16.287084 c 0,0 1.847215,17.623139 0.400905,26.025371 -0.355922,2.067699 -2.84666,4.47776 -4.944486,4.443355 -3.071088,-0.05037 -6.73464,-2.769753 -7.14946,-5.813113 -0.34303,-2.516669 2.093828,-5.171476 4.409945,-6.214017 1.511682,-0.680445 4.944489,0.53454 4.944489,0.53454 V 25.106977 l -18.441599,2.672697 0.267269,16.370257 c 0.04574,2.801465 -2.227887,5.10344 -5.612659,5.746295 -0.881989,0.167512 -5.584439,0.05562 -6.815373,-5.144937 z"
       id="path826"
       inkscape:connector-curvature="0"
       sodipodi:nodetypes="sscccsssscccsss" />
  </g>
</svg>
